Coordinates
version=1
nRows=12
nColumns=24
inDegrees=yes

Units are S.I. units (second, meters, Newtons, ...)
Angles are in degrees.

endheader
time	pelvis_tilt	pelvis_list	pelvis_rotation	pelvis_tx	pelvis_ty	pelvis_tz	hip_flexion_r	hip_adduction_r	hip_rotation_r	knee_angle_r	ankle_angle_r	subtalar_angle_r	mtp_angle_r	hip_flexion_l	hip_adduction_l	hip_rotation_l	knee_angle_l	ankle_angle_l	subtalar_angle_l	mtp_angle_l	lumbar_extension	lumbar_bending	lumbar_rotation
      1.00816667	     -7.61629864	      1.50921928	     -2.70443471	     -0.12025638	      1.03525596	      0.29839009	     -1.93234166	     -0.32869424	      0.29358723	    -16.64871097	     19.44632781	      0.24376124	      7.28697111	     29.25460854	     -0.80072991	      1.59553565	     -3.45764797	      2.48840738	      0.20793441	      7.18344897	     -5.28697077	      1.58164059	      3.35623291
      1.01233333	     -7.59231404	      1.59044696	     -2.77171572	     -0.11413281	      1.03447347	      0.29794686	     -2.05855163	     -0.49346312	      0.22992862	    -17.19933889	     19.55152976	      0.50328585	      7.32978275	     29.32737432	     -0.65654374	      1.59703669	     -4.01141209	      2.36557057	      0.15528028	      7.19871334	     -5.27733752	      1.46453559	      3.37830307
      1.01650000	     -7.54967693	      1.67366236	     -2.83190213	     -0.10801469	      1.03377054	      0.29747946	     -2.18469131	     -0.66523684	      0.14816890	    -17.78821354	     19.61898161	      0.78498300	      7.40313182	     29.39312664	     -0.50513043	      1.58545313	     -4.64956935	      2.22467200	      0.12033681	      7.22883374	     -5.28914129	      1.35311445	      3.40337563
      1.02066667	     -7.52240197	      1.76399303	     -2.89826015	     -0.10188757	      1.03310541	      0.29702842	     -2.26914358	     -0.84404483	      0.09083728	    -18.42571764	     19.64811438	      1.03744752	      7.50538034	     29.47977117	     -0.35116697	      1.56554634	     -5.35407578	      2.08147891	      0.09496155	      7.27041065	     -5.28101977	      1.22126490	      3.42073582
      1.02483333	     -7.49144596	      1.85522240	     -2.96088280	     -0.09576447	      1.03248586	      0.29657107	     -2.33301237	     -1.02603730	      0.02979369	    -19.11254888	     19.64077333	      1.28788439	      7.63519769	     29.57308433	     -0.19571386	      1.53518470	     -6.12529018	      1.93581251	      0.08389910	      7.32071885	     -5.27913958	      1.08587600	      3.43324276
      1.02900000	     -7.47075918	      1.95146272	     -3.03202314	     -0.08963397	      1.03191608	      0.29612017	     -2.35945549	     -1.21360087	     -0.00408054	    -19.84623788	     19.57836324	      1.49788338	      7.75617276	     29.67650729	     -0.04096423	      1.49528440	     -6.93860662	      1.80514865	      0.06131726	      7.36257746	     -5.25501283	      0.92587784	      3.43082898
      1.03316667	     -7.43168838	      2.04113725	     -3.08821015	     -0.08351665	      1.03142223	      0.29563280	     -2.37983095	     -1.40117550	     -0.08064067	    -20.63121704	     19.47828767	      1.77208249	      7.92145731	     29.77628812	      0.11264441	      1.44282908	     -7.81524587	      1.67055223	      0.08505854	      7.41364173	     -5.27179352	      0.79428303	      3.44200123
      1.03733333	     -7.39326857	      2.12538895	     -3.14549020	     -0.07740271	      1.03098534	      0.29513772	     -2.37020951	     -1.58492333	     -0.15163994	    -21.46964645	     19.32741145	      2.02485732	      8.13996237	     29.87824650	      0.25760619	      1.37150543	     -8.72263983	      1.53854746	      0.12458351	      7.47275682	     -5.28124213	      0.65905989	      3.44745454
      1.04150000	     -7.34010734	      2.20792397	     -3.20025289	     -0.07129065	      1.03063196	      0.29464230	     -2.35190232	     -1.76911491	     -0.21691836	    -22.35178303	     19.10987979	      2.25546015	      8.38164531	     29.96199583	      0.39971228	      1.30087799	     -9.64867682	      1.42357102	      0.16183582	      7.52937421	     -5.30925927	      0.51921102	      3.44762551
      1.04566667	     -7.30342166	      2.26255618	     -3.26545235	     -0.06519783	      1.03032114	      0.29417022	     -2.28958790	     -1.91647900	     -0.22970966	    -23.26831468	     18.75161986	      2.30813602	     11.60047116	     30.07953078	      0.49765201	      1.14554737	    -10.63072911	      1.34898456	      0.33189029	      8.16246386	     -5.32164151	      0.43180931	      3.46443611
      1.04983333	     -7.24376524	      2.34969113	     -3.30460387	     -0.05907139	      1.03010601	      0.29361919	     -2.21697844	     -2.11947273	     -0.35257391	    -24.26280475	     18.42177379	      2.60079375	     11.66350741	     30.12764075	      0.65268321	      1.14195310	    -11.53146222	      1.22201536	      0.26844243	      8.16467478	     -5.35604204	      0.27534683	      3.44724879
      1.05400000	     -7.20618146	      2.41277354	     -3.35368971	     -0.05298074	      1.02989862	      0.29307134	     -2.07755554	     -2.29648900	     -0.45535607	    -25.33375738	     18.06868082	      2.83758922	     11.80633402	     30.20793956	      0.77021552	      1.07214084	    -12.46265411	      1.14108194	      0.31286742	      8.16802753	     -5.37016002	      0.17260182	      3.44865287
